<svg width="16" height="14" viewBox="0 0 16 14" fill="none" xmlns="http://www.w3.org/2000/svg">
<path fill-rule="evenodd" clip-rule="evenodd" d="M2.0854 1.46138H0V0H3.2287L5.22149 8.03759H11.4959L13.4552 3.93448H6.64263V2.4731H15.7724L12.4176 9.49896H4.07819L2.0854 1.46138Z" fill="white"/>
<path d="M6.5 12.75C6.5 13.4404 5.94036 14 5.25 14C4.55964 14 4 13.4404 4 12.75C4 12.0596 4.55964 11.5 5.25 11.5C5.94036 11.5 6.5 12.0596 6.5 12.75Z" fill="white"/>
<path d="M12.5 12.75C12.5 13.4404 11.9404 14 11.25 14C10.5596 14 10 13.4404 10 12.75C10 12.0596 10.5596 11.5 11.25 11.5C11.9404 11.5 12.5 12.0596 12.5 12.75Z" fill="white"/>
</svg>
